<svg width="208" height="194" viewBox="0 0 208 194" fill="none" xmlns="http://www.w3.org/2000/svg">
<circle cx="104.632" cy="65.1038" r="65.1038" fill="#D7F6DA"/>
<path d="M80.4855 77.2737C85.6313 75.3603 90.2903 69.9796 91.6115 69.736C92.9327 69.4925 104.522 76.4155 104.522 89.0904C104.504 91.6785 103.931 94.2326 102.844 96.5809C101.756 98.9292 100.179 101.017 98.2175 102.705C98.1184 102.786 98.0471 102.896 98.0136 103.02C97.9801 103.143 97.9862 103.275 98.0309 103.395C98.0756 103.515 98.1567 103.618 98.2629 103.69C98.3691 103.761 98.4951 103.798 98.6232 103.795H110.213C110.342 103.793 112.044 103.828 112.148 103.751C112.252 103.674 112.82 103.434 112.859 103.311C113.696 100.787 112.12 98.2167 112.252 95.5612C112.186 91.1501 111.404 86.7791 109.935 82.6196C108.961 79.8713 109.181 74.421 114.327 72.4032C114.449 72.3583 114.582 72.3532 114.707 72.3886C114.832 72.424 114.942 72.4982 115.022 72.6003C115.81 73.5976 116.703 74.6181 117.676 75.6502C117.778 75.7778 117.926 75.8599 118.088 75.8784C118.25 75.8969 118.412 75.8503 118.54 75.7488C118.667 75.6473 118.749 75.4992 118.768 75.3372C118.786 75.1752 118.74 75.0125 118.638 74.8848C118.009 74.0227 117.51 73.0734 117.155 72.0669C117.111 71.9147 117.127 71.7513 117.2 71.6108C117.274 71.4703 117.399 71.3637 117.549 71.3131C121.965 69.8404 129.266 69.133 138.526 74.8616C135.059 71.9319 130.903 69.9362 126.45 69.0634C126.343 69.0516 126.241 69.0112 126.155 68.9466C126.069 68.882 126.001 68.7955 125.96 68.696C125.918 68.5966 125.904 68.4879 125.919 68.3812C125.934 68.2745 125.977 68.1737 126.044 68.0894C129.092 64.0074 133.38 56.8757 135.768 55.0898C131.248 57.8266 127.423 65.7933 123.263 68.3097L123.123 68.3793C121.366 69.0011 119.517 69.3226 117.653 69.3302C117.553 69.3332 117.455 69.3115 117.365 69.2669C117.276 69.2223 117.199 69.1562 117.142 69.0746C117.084 68.993 117.048 68.8984 117.036 68.7993C117.024 68.7002 117.037 68.5997 117.074 68.5068C117.733 66.7984 118.196 65.0205 118.453 63.2073C116.935 66.5006 115.127 71.9277 108.799 73.0294C108.704 73.0525 108.604 73.0525 108.509 73.0294C106.006 72.38 105.032 65.7005 107.35 58.7659C108.333 55.86 109.594 53.056 111.117 50.3933C111.199 50.2633 111.229 50.1073 111.202 49.9559C111.175 49.8045 111.092 49.6688 110.97 49.5756C110.848 49.4824 110.695 49.4384 110.542 49.4524C110.389 49.4664 110.247 49.5373 110.143 49.6511C109.062 50.6915 108.07 51.8203 107.176 53.0257C107.111 53.1198 107.021 53.1939 106.915 53.2394C106.81 53.2849 106.694 53.3 106.581 53.2831C106.468 53.2663 106.361 53.218 106.274 53.1438C106.187 53.0696 106.122 52.9725 106.087 52.8633C104.708 48.3059 102.332 40.548 98.3798 38.7273C98.3798 38.7273 106.238 45.0474 104.534 59.9487C104.535 60.0868 104.49 60.2213 104.406 60.3305C104.321 60.4398 104.202 60.5174 104.069 60.5509C103.935 60.5844 103.793 60.5718 103.668 60.5151C103.542 60.4585 103.439 60.3611 103.375 60.2386C102.028 58.4418 100.308 56.9582 98.3334 55.89C102.077 59.8907 104.128 65.1671 101.335 71.0348C101.277 71.1479 101.257 71.2766 101.278 71.4019C101.299 71.5272 101.36 71.6425 101.451 71.7306C101.764 72.0437 102.077 72.3684 102.378 72.6931C101.973 72.2756 101.567 71.8466 101.138 71.4291C95.6331 66.4079 91.8085 66.8833 90.7886 63.8915C90.4935 62.9249 90.2574 61.9412 90.0817 60.946C90.0521 60.7954 89.9673 60.6613 89.8439 60.5701C89.7205 60.4789 89.5675 60.4372 89.415 60.4532C89.2624 60.4692 89.1213 60.5417 89.0195 60.6565C88.9177 60.7713 88.8625 60.9201 88.8648 61.0735C88.8648 62.6738 88.5982 63.8103 87.8681 64.1466C86.1401 64.8941 84.2116 65.041 82.3904 64.5639C80.5692 64.0868 78.9601 63.0131 77.8199 61.5142C75.6211 58.3651 72.7961 55.7042 69.5218 53.6982C73.4275 57.8382 76.8696 61.3519 78.6776 64.5177C78.7254 64.6 78.7532 64.6924 78.7585 64.7875C78.7638 64.8826 78.7465 64.9775 78.7081 65.0646C78.6696 65.1517 78.6111 65.2285 78.5373 65.2886C78.4635 65.3488 78.3766 65.3906 78.2835 65.4106C74.5748 66.0194 70.9524 67.0705 67.4937 68.5416C67.4937 68.5416 81.8067 64.3321 90.0585 68.2169C90.1404 68.2553 90.2126 68.3116 90.2698 68.3818C90.327 68.4519 90.3677 68.534 90.3888 68.622C90.41 68.71 90.411 68.8016 90.392 68.8901C90.3729 68.9785 90.3342 69.0616 90.2787 69.133C87.6007 72.4839 84.2686 75.2538 80.4855 77.2737Z" fill="#672F17"/>
<path d="M135.711 54.6491C135.436 54.74 135.18 54.8816 134.958 55.0666C135.201 54.9142 135.453 54.7749 135.711 54.6491Z" fill="#D20000"/>
<path d="M138.156 75.2443C137.959 77.4476 140.266 81.0425 145.377 80.8453C144.055 75.3255 138.191 75.2443 138.156 75.2443Z" fill="#D20000"/>
<path d="M143.418 68.8547C138.585 65.8628 134.367 70.0143 134.367 70.0143C135.781 71.6958 139.964 72.6235 143.418 68.8547Z" fill="#D20000"/>
<path d="M149.237 73.4701C145.76 70.5362 141.993 73.2845 141.993 73.2845C142.897 74.7921 146.073 76.0097 149.237 73.4701Z" fill="#D20000"/>
<path d="M132.466 69.0518C132.377 68.3966 132.084 67.7861 131.628 67.3073C131.173 66.8284 130.578 66.5055 129.928 66.3847C129.708 67.208 130.415 68.8199 132.466 69.0518Z" fill="#D20000"/>
<path d="M129.835 64.1582C130.994 64.4597 133.219 63.4856 133.532 60.6793C132.623 60.7811 131.771 61.1751 131.104 61.8024C130.438 62.4296 129.992 63.2562 129.835 64.1582Z" fill="#D20000"/>
<path d="M132.095 65.944C133.185 66.9297 136.001 67.1037 137.89 64.3553C134.471 62.9058 132.095 65.944 132.095 65.944Z" fill="#D20000"/>
<path d="M132.953 58.2672C133.775 59.7631 136.8 61.0619 139.906 58.7079C136.742 55.7508 132.953 58.2672 132.953 58.2672Z" fill="#D20000"/>
<path d="M139.594 61.1779C139.107 62.152 139.524 64.1814 141.912 64.9815C141.989 64.1819 141.804 63.3788 141.386 62.693C140.969 62.0071 140.339 61.4754 139.594 61.1779Z" fill="#D20000"/>
<path d="M145.771 58.8122C145.049 58.4697 144.237 58.3693 143.453 58.526C142.67 58.6827 141.959 59.0882 141.425 59.682C142.166 60.4589 144.229 60.7604 145.771 58.8122Z" fill="#D20000"/>
<path d="M145.214 47.5522C141.367 46.5549 139.42 50.1498 139.42 50.1498C140.695 51.0311 143.673 50.7876 145.214 47.5522Z" fill="#D20000"/>
<path d="M137.693 44.0849C134.019 46.6129 135.642 50.9731 135.642 50.9731C137.322 50.4977 139.315 47.8305 137.693 44.0849Z" fill="#D20000"/>
<path d="M132.153 46.81C128.816 50.5208 131.725 54.8347 131.725 54.8347C133.417 53.8722 134.877 50.3933 132.153 46.81Z" fill="#D20000"/>
<path d="M127.169 55.2406C127.058 55.8867 127.16 56.5515 127.458 57.135C127.757 57.7185 128.238 58.1891 128.827 58.476C128.947 58.1555 128.999 57.8135 128.979 57.4719C128.959 57.1302 128.869 56.7964 128.713 56.4919C128.557 56.1873 128.339 55.9187 128.073 55.7033C127.807 55.4878 127.499 55.3302 127.169 55.2406Z" fill="#D20000"/>
<path d="M125.86 58.1512C125.443 58.8195 125.256 59.6051 125.325 60.3895C125.394 61.1739 125.716 61.9146 126.242 62.4999C127.077 61.8505 127.598 59.8675 125.86 58.1512Z" fill="#D20000"/>
<path d="M118.431 63.1841C119.381 63.1841 120.748 61.9549 120.401 59.7979C119.751 60.0738 119.208 60.5527 118.853 61.1631C118.498 61.7735 118.349 62.4825 118.431 63.1841Z" fill="#D20000"/>
<path d="M115.175 64.6684C115.476 63.3116 114.34 60.888 111.165 60.6097C111.307 61.6279 111.775 62.5728 112.497 63.304C113.22 64.0352 114.159 64.5137 115.175 64.6684Z" fill="#D20000"/>
<path d="M116.577 61.2359C117.342 59.5428 116.507 56.0407 112.393 54.8231C111.906 59.5544 116.565 61.2359 116.577 61.2359Z" fill="#D20000"/>
<path d="M117.562 58.5919C118.802 58.5919 120.679 57.1076 120.285 54.2897C119.426 54.6139 118.696 55.209 118.204 55.9851C117.713 56.7612 117.488 57.6762 117.562 58.5919Z" fill="#D20000"/>
<path d="M126.474 52.3647C127.436 52.3647 128.896 51.205 128.595 49.0249C127.929 49.2781 127.362 49.7402 126.98 50.3421C126.598 50.944 126.42 51.6535 126.474 52.3647Z" fill="#D20000"/>
<path d="M120.239 51.0311C120.565 51.8565 121.148 52.5549 121.901 53.0228C122.655 53.4907 123.539 53.7031 124.423 53.6287C124.412 52.469 122.986 50.6368 120.239 51.0311Z" fill="#D20000"/>
<path d="M121.247 45.7431C121.074 49.4192 124.724 50.5208 124.724 50.5208C125.269 49.1757 124.469 46.5085 121.247 45.7431Z" fill="#D20000"/>
<path d="M125.06 44.166C125.895 43.0064 125.779 40.2233 122.847 38.6809C121.769 42.2062 125.06 44.166 125.06 44.166Z" fill="#D20000"/>
<path d="M130.507 35.2136C126.439 36.2689 126.462 40.6291 126.462 40.6523C128.108 40.7683 130.751 38.994 130.507 35.2136Z" fill="#D20000"/>
<path d="M133.37 39.0404C132.594 39.275 131.915 39.7537 131.433 40.4055C130.95 41.0574 130.691 41.8475 130.693 42.6585C131.783 42.7396 133.544 41.5568 133.37 39.0404Z" fill="#D20000"/>
<path d="M132.362 44.4908C131.672 44.0629 130.864 43.869 130.056 43.9379C129.248 44.0069 128.483 44.335 127.876 44.8734C128.549 45.7432 130.588 46.2766 132.362 44.4908Z" fill="#D20000"/>
<path d="M116.449 54.452C117.33 54.452 118.651 53.4083 118.373 51.4137C117.767 51.643 117.251 52.0633 116.904 52.6113C116.557 53.1593 116.397 53.8053 116.449 54.452Z" fill="#D20000"/>
<path d="M111.791 50.1498C112.463 51.1354 114.653 51.866 116.704 50.0338C115.983 49.5178 115.114 49.2501 114.228 49.271C113.342 49.292 112.486 49.6003 111.791 50.1498Z" fill="#D20000"/>
<path d="M120.065 41.9279C114.896 41.5105 113.169 46.6708 113.169 46.6708C115.082 47.4362 118.825 46.4389 120.065 41.9279Z" fill="#D20000"/>
<path d="M107.34 40.1653C104.767 44.6646 108.661 48.4103 108.661 48.4103C110.179 47.0651 110.898 43.1919 107.34 40.1653Z" fill="#D20000"/>
<path d="M111.176 36.3385C108.591 40.8727 112.497 44.5835 112.497 44.5835C114.004 43.1919 114.722 39.3767 111.176 36.3385Z" fill="#D20000"/>
<path d="M108.464 26.957C105.056 29.8213 107.085 33.996 107.085 33.996C108.707 33.3466 110.446 30.4359 108.464 26.957Z" fill="#D20000"/>
<path d="M100.514 30.7258C97.0369 34.4135 99.9111 38.8433 99.9111 38.8433C101.65 37.904 103.191 34.4135 100.514 30.7258Z" fill="#D20000"/>
<path d="M95.1824 37.6837C95.0085 35.3644 91.9721 31.9782 86.6873 33.1031C89.0052 38.6346 95.1824 37.6837 95.1824 37.6837Z" fill="#D20000"/>
<path d="M96.5381 35.0745C97.3378 34.2511 97.5927 32.0594 95.4834 30.4359C95.1285 31.2182 95.0395 32.0952 95.23 32.9329C95.4204 33.7706 95.8799 34.5228 96.5381 35.0745Z" fill="#D20000"/>
<path d="M97.3496 40.9423C95.9473 39.4231 92.0184 38.7621 88.9819 42.4382C93.6062 44.9894 97.3496 40.9423 97.3496 40.9423Z" fill="#D20000"/>
<path d="M99.2619 45.7315C98.3927 44.7806 95.9473 44.3748 94.0698 46.6476C94.9178 47.0777 95.8823 47.2209 96.8185 47.0557C97.7548 46.8905 98.6121 46.4259 99.2619 45.7315Z" fill="#D20000"/>
<path d="M91.6826 49.7091C92.0651 54.0809 96.5386 54.7883 96.5386 54.7883C96.979 53.1184 95.6115 50.1497 91.6826 49.7091Z" fill="#D20000"/>
<path d="M77.1606 43.7138C77.7054 49.941 84.1144 50.9615 84.1144 50.9615C84.7054 48.5843 82.7584 44.282 77.1606 43.7138Z" fill="#D20000"/>
<path d="M67.5644 46.5549C66.5561 51.1934 71.0413 53.4083 71.0413 53.4083C71.9337 51.808 71.4817 48.2247 67.5644 46.5549Z" fill="#D20000"/>
<path d="M75.1092 52.3878C72.9304 55.5305 75.5612 58.5223 75.5612 58.5223C76.7665 57.6178 77.5315 54.7883 75.1092 52.3878Z" fill="#D20000"/>
<path d="M66.2434 45.6272C66.6259 44.5951 66.0001 42.5541 63.5083 41.9859C63.5085 42.8074 63.7753 43.6066 64.2686 44.2632C64.7618 44.9199 65.4549 45.3986 66.2434 45.6272Z" fill="#D20000"/>
<path d="M66.2319 51.3674C66.9621 49.4192 65.78 45.5692 61.0978 44.5255C60.9123 49.8251 66.2088 51.3674 66.2319 51.3674Z" fill="#D20000"/>
<path d="M57.5278 54.2549C62.0593 57.0264 65.9998 53.0952 65.9998 53.0952C64.6554 51.5413 60.7381 50.7064 57.5278 54.2549Z" fill="#D20000"/>
<path d="M62.2566 60.6444C67.2401 61.6185 69.4769 56.8176 69.4769 56.8176C67.75 55.832 63.9487 56.3886 62.2566 60.6444Z" fill="#D20000"/>
<path d="M55.9749 71.4407C61.3176 72.4844 63.7051 67.3472 63.7051 67.3472C61.8855 66.2919 57.8292 66.8949 55.9749 71.4407Z" fill="#D20000"/>
<path d="M59.116 76.4155C63.462 76.346 64.4819 71.9277 64.4819 71.9277C62.8594 71.4175 59.7882 72.5539 59.116 76.4155Z" fill="#D20000"/>
<path d="M66.2896 78.3869C70.0446 76.2184 68.7929 71.8698 68.7929 71.8698C67.1356 72.1829 65.0032 74.6877 66.2896 78.3869Z" fill="#D20000"/>
<path d="M65.3042 71.1392C65.9332 71.2896 66.594 71.2318 67.1874 70.9747C67.7808 70.7175 68.2749 70.2748 68.5956 69.7128C68.2879 69.5735 67.9544 69.5001 67.6167 69.4973C67.2789 69.4946 66.9443 69.5626 66.6343 69.6969C66.3244 69.8312 66.0459 70.0289 65.8168 70.2773C65.5878 70.5257 65.4131 70.8193 65.3042 71.1392Z" fill="#D20000"/>
<path d="M72.2934 75.4878C72.6975 74.684 72.8311 73.7711 72.6745 72.8851C72.5178 71.999 72.0793 71.1874 71.4242 70.571C70.5318 71.3943 70.1378 73.702 72.2934 75.4878Z" fill="#D20000"/>
<path d="M78.1809 76.346C76.7091 75.1863 73.1047 75.1863 70.8911 78.8508C75.3879 80.4975 78.1809 76.346 78.1809 76.346Z" fill="#D20000"/>
<path d="M81.7616 74.6181C81.6109 72.7511 79.1539 70.0839 74.9585 71.0232C76.836 75.4183 81.7616 74.6181 81.7616 74.6181Z" fill="#D20000"/>
<path d="M80.5796 69.2954C81.2519 69.977 82.1269 70.4222 83.0734 70.5644C84.0199 70.7066 84.987 70.538 85.8297 70.0839C85.2965 68.9011 83.1061 67.7298 80.5796 69.2954Z" fill="#D20000"/>
<path d="M70.0329 86.3884C73.9734 85.4839 74.0429 81.2628 74.0429 81.2628C72.4667 81.1121 69.8823 82.7472 70.0329 86.3884Z" fill="#D20000"/>
<path d="M75.4572 85.7274C79.9539 84.0228 79.3512 79.0479 79.3512 79.0479C77.4737 79.1407 74.7038 81.46 75.4572 85.7274Z" fill="#D20000"/>
<path d="M83.79 83.5473C86.8149 80.4627 84.4622 76.5895 84.4622 76.5895C82.944 77.3897 81.5532 80.3003 83.79 83.5473Z" fill="#D20000"/>
<path d="M89.2371 74.1079C88.4142 75.511 88.8199 78.6305 92.262 80.0684C93.1312 75.9981 89.2371 74.1079 89.2371 74.1079Z" fill="#D20000"/>
<path d="M94.1165 74.6413C93.9416 73.7019 93.47 72.8434 92.7711 72.1921C92.0722 71.5409 91.183 71.1312 90.234 71.0232C89.9907 72.2408 91.1264 74.5021 94.1165 74.6413Z" fill="#D20000"/>
<path d="M86.9536 77.0186C87.5041 76.5352 87.8831 75.8862 88.0336 75.169C88.184 74.4518 88.0979 73.7051 87.7881 73.041C86.8725 73.3425 85.8758 75.0124 86.9536 77.0186Z" fill="#D20000"/>
<path d="M60.9351 50.8223C60.8308 49.3844 58.9765 47.3434 55.7083 47.9812C57.1338 51.4022 60.9351 50.8223 60.9351 50.8223Z" fill="#D20000"/>
<path d="M78.54 52.6314C80.5798 56.1914 84.6825 55.0202 84.6825 55.0202C84.3696 53.4547 82.0285 51.4253 78.54 52.6314Z" fill="#D20000"/>
<path d="M78.7603 57.1076C78.8738 57.9987 79.2747 58.8284 79.9021 59.4709C80.5296 60.1134 81.3494 60.5336 82.2371 60.6677C82.4689 59.5196 81.4722 57.4091 78.7603 57.1076Z" fill="#D20000"/>
<path d="M85.1112 58.1397C84.4154 58.5115 83.8587 59.0989 83.5244 59.8139C83.1901 60.5288 83.0963 61.3329 83.2569 62.1056C84.3 61.9665 85.7487 60.5053 85.1112 58.1397Z" fill="#D20000"/>
<path d="M79.3513 62.1636C79.8544 62.4477 80.436 62.5606 81.0087 62.4853C81.5814 62.41 82.1142 62.1506 82.5269 61.7461C82.2972 61.5499 82.029 61.4042 81.7395 61.3184C81.4499 61.2326 81.1456 61.2085 80.8463 61.2479C80.5469 61.2873 80.2591 61.3891 80.0016 61.5469C79.744 61.7046 79.5225 61.9147 79.3513 62.1636Z" fill="#D20000"/>
<path d="M69.3719 65.5498C69.059 63.9843 66.7179 61.9549 63.2295 63.1609C65.2461 66.721 69.3719 65.5498 69.3719 65.5498Z" fill="#D20000"/>
<path d="M68.3643 60.5865C69.5232 64.5177 73.7998 64.3205 73.8113 64.3205C73.8577 62.7087 72.0381 60.2038 68.3643 60.5865Z" fill="#D20000"/>
<path d="M52.4983 59.8907C55.9752 62.21 59.058 59.2529 59.058 59.2529C58.0729 57.9889 55.0712 57.2352 52.4983 59.8907Z" fill="#D20000"/>
<path d="M61.5608 58.7426C61.5608 57.7222 60.4019 56.1103 58.084 56.3422C58.3197 57.0688 58.7879 57.6975 59.4163 58.1313C60.0447 58.5652 60.7983 58.78 61.5608 58.7426Z" fill="#D20000"/>
<path d="M61.3873 59.9487C60.2283 59.6356 58.0495 60.5633 57.7134 63.3464C58.6105 63.2535 59.4534 62.8722 60.1157 62.2597C60.7781 61.6471 61.2242 60.8363 61.3873 59.9487Z" fill="#D20000"/>
<path d="M86.1075 51.1586C87.3939 50.8919 89.0512 48.9785 88.0661 46.1258C87.2407 46.6409 86.6039 47.4094 86.2509 48.3165C85.8979 49.2236 85.8476 50.2206 86.1075 51.1586Z" fill="#D20000"/>
<path d="M86.0031 41.0234C87.0809 40.8727 88.4253 39.2028 87.6372 36.8139C86.9471 37.2449 86.4149 37.8879 86.1203 38.6467C85.8257 39.4055 85.7846 40.2393 86.0031 41.0234Z" fill="#D20000"/>
<path d="M78.0646 38.7273C77.3735 39.1603 76.8409 39.8053 76.5463 40.5661C76.2518 41.3269 76.2112 42.1626 76.4305 42.9484C77.5083 42.7281 78.8991 41.1162 78.0646 38.7273Z" fill="#D20000"/>
<path d="M74.7271 44.4907C71.6327 42.3454 68.689 44.943 68.689 44.943C69.5698 46.1142 72.3049 46.868 74.7271 44.4907Z" fill="#D20000"/>
<path d="M74.2636 34.7498C73.81 35.4258 73.5875 36.2307 73.6292 37.0438C73.671 37.857 73.9749 38.6348 74.4954 39.2607C75.3877 38.6229 76.002 36.5936 74.2636 34.7498Z" fill="#D20000"/>
<path d="M84.9485 43.2963C84.7399 42.2063 83.1174 40.7915 80.6836 41.6264C81.1192 42.328 81.7699 42.8698 82.5386 43.1708C83.3074 43.4717 84.1528 43.5158 84.9485 43.2963Z" fill="#D20000"/>
<path d="M84.5432 40.1653C84.8097 38.5534 83.3031 35.7702 79.5249 35.6543C80.1971 39.7942 84.5432 40.1653 84.5432 40.1653Z" fill="#D20000"/>
<path d="M67.9238 36.5936C68.7235 41.6264 74.0199 42.0323 74.0199 42.0323C74.3328 40.1073 72.5133 36.7212 67.9238 36.5936Z" fill="#D20000"/>
<path d="M98.7636 56.0639C99.7023 56.0639 101.209 55.0782 101.081 52.9097C100.404 53.1098 99.8102 53.5266 99.3916 54.0962C98.973 54.6658 98.7524 55.357 98.7636 56.0639Z" fill="#D20000"/>
<path d="M97.245 48.19C96.7153 48.7848 96.3909 49.5345 96.3199 50.3281C96.249 51.1217 96.4352 51.9171 96.851 52.5966C97.8013 52.0979 98.6706 50.2193 97.245 48.19Z" fill="#D20000"/>
<path d="M96.9787 56.8061C96.0565 56.4603 95.0469 56.4237 94.102 56.7019C93.1572 56.9801 92.3283 57.5579 91.7402 58.3484C92.7485 59.2181 95.2982 59.4269 96.9787 56.8061Z" fill="#D20000"/>
<path d="M105.81 36.4429C106.32 35.4224 105.914 33.2539 103.423 32.3725C103.327 33.2181 103.507 34.0721 103.938 34.8061C104.368 35.54 105.025 36.1144 105.81 36.4429Z" fill="#D20000"/>
<path d="M111.663 34.8773C111.013 34.6871 110.32 34.7093 109.684 34.9409C109.049 35.1724 108.503 35.6011 108.128 36.1645C108.823 36.7212 110.608 36.7212 111.663 34.8773Z" fill="#D20000"/>
<path d="M118.28 34.5874C114.943 36.6632 116.241 40.5712 116.241 40.5712C117.701 40.2117 119.567 37.904 118.28 34.5874Z" fill="#D20000"/>
<path d="M145.574 52.156C140.567 49.5236 136.65 53.9302 136.65 53.9302C138.179 55.5305 142.398 56.1567 145.574 52.156Z" fill="#D20000"/>
<path d="M149.097 63.4856C146.663 59.9139 142.433 61.4794 142.433 61.4794C142.897 63.1029 145.516 65.0395 149.097 63.4856Z" fill="#D20000"/>
<path d="M132.084 73.6556C131.504 75.3255 132.593 78.5493 136.569 79.361C136.627 74.85 132.107 73.6672 132.084 73.6556Z" fill="#D20000"/>
<path d="M124.828 95.4916C124.147 95.1792 123.393 95.0627 122.649 95.1553C121.851 95.2813 121.073 95.5073 120.331 95.8279C118.465 96.5004 116.727 97.4397 116.356 97.4397C115.985 97.4397 115.464 96.8251 115.835 96.3961C117.09 95.2892 118.453 94.3103 119.903 93.4738C120.335 93.4996 120.754 93.6353 121.119 93.8681L124.596 89.2991L121.745 86.7247L121.525 87.1654L121.108 86.8755L117.492 91.6879L118.477 92.4069C117.509 92.9232 116.515 93.3877 115.498 93.7985C114.78 93.8681 114.919 91.9083 114.108 90.6791C113.654 89.9369 112.964 89.3692 112.149 89.0672C111.801 88.986 111.546 87.5249 111.767 87.5365C112.705 87.5365 113.644 87.5364 113.714 86.516C113.809 86.0467 113.768 85.5601 113.598 85.1128C113.598 84.9389 113.748 84.7069 113.737 84.4982C113.725 84.2895 113.575 82.9211 113.575 82.9211C113.575 82.9211 114.166 82.7819 114.235 82.3413C114.256 82.2698 114.259 82.1944 114.244 82.1214C114.23 82.0485 114.198 81.9801 114.151 81.9221C114.105 81.8641 114.045 81.8182 113.977 81.7882C113.909 81.7582 113.834 81.7451 113.76 81.7499C113.551 81.7499 113.25 81.3324 113.157 81.2396C112.755 80.9946 112.305 80.8379 111.838 80.7799C111.37 80.722 110.896 80.764 110.445 80.9033C109.379 81.4252 108.556 81.402 108.348 82.492C108.144 83.8285 108.175 85.1903 108.44 86.516C108.707 87.3741 109.194 87.4089 109.449 87.1422C109.704 86.8755 110.248 86.8987 110.109 87.6408C110.104 87.961 110.027 88.276 109.885 88.5628C109.742 88.8496 109.538 89.1011 109.287 89.2991C108.788 89.647 107.247 93.7985 107.919 98.008C108.591 102.217 111.489 104.467 115.313 103.47C118.024 102.655 120.506 101.213 122.557 99.2604C123.032 98.8081 123.936 97.2426 124.26 98.1935C124.585 99.1444 124.712 100.072 125.419 100.513C126.313 101.139 126.73 101.459 127.262 102.413C127.422 102.81 127.166 103.491 127.677 103.737C128.23 104.002 128.921 103.656 130.165 103.656C131.408 103.656 132.03 103.737 132.57 103.737C133.057 103.737 133.497 103.192 133.138 103.041C132.792 102.959 132.438 102.924 132.083 102.936C131.817 102.936 129.186 102.264 128.803 101.209C128.009 99.5987 127.119 98.0381 126.138 96.5352C125.768 96.1107 125.324 95.757 124.828 95.4916Z" fill="#969696"/>
<path d="M5.99525 166.878C6.23394 166.661 6.44008 166.303 6.61366 165.804C6.80895 165.304 6.9066 164.708 6.9066 164.013C6.9066 162.994 6.72216 162.071 6.35328 161.247C6.0061 160.401 5.55043 159.663 4.98627 159.034H0.98287V156.3H20.5442V159.034H17.7776V177H14.2624V159.034H8.63164C9.04391 159.489 9.45619 160.194 9.86846 161.149C10.2807 162.104 10.4869 163.254 10.4869 164.599C10.4869 165.619 10.3458 166.53 10.0637 167.333C9.80336 168.114 9.44534 168.776 8.98966 169.319C8.55569 169.861 8.03492 170.273 7.42736 170.556C6.8415 170.838 6.22309 170.979 5.57213 170.979C4.61739 170.979 3.80369 170.697 3.13103 170.132C2.45838 169.547 2.12205 168.787 2.12205 167.854C2.12205 167.138 2.33903 166.585 2.77301 166.194C3.22868 165.782 3.7386 165.576 4.30276 165.576L5.99525 166.878ZM11.6278 177.814C12.0184 177.401 12.5934 177.054 13.3529 176.772C14.0906 176.49 14.8501 176.349 15.6312 176.349C16.4775 176.349 17.2261 176.468 17.877 176.707C18.5063 176.946 19.0488 177.271 19.5044 177.684C19.9384 178.117 20.2639 178.606 20.4809 179.148C20.7196 179.712 20.8389 180.309 20.8389 180.938C20.8389 181.654 20.6979 182.316 20.4158 182.924C20.1337 183.553 19.7323 184.085 19.2115 184.519C18.669 184.953 18.0289 185.289 17.2912 185.528C16.5317 185.788 15.6855 185.918 14.7524 185.918C13.0816 185.918 11.4759 185.528 9.93533 184.746C8.37303 183.987 7.03857 182.891 5.93194 181.459L8.0801 179.539C9.14333 180.732 10.2066 181.622 11.2698 182.208C12.3113 182.815 13.4071 183.119 14.5571 183.119C15.4685 183.119 16.152 182.913 16.6077 182.501C17.0416 182.088 17.2586 181.568 17.2586 180.938C17.2586 180.396 17.0959 179.951 16.7704 179.604C16.4232 179.278 15.9242 179.116 15.2732 179.116C14.8826 179.116 14.5029 179.192 14.134 179.343C13.7434 179.517 13.4071 179.723 13.125 179.962L11.6278 177.814ZM30.4405 165.966C29.8113 165.402 28.9976 165.12 27.9994 165.12C27.1315 165.12 26.4046 165.38 25.8187 165.901C25.2329 166.4 24.9399 167.203 24.9399 168.31C24.9399 169.134 25.0918 169.883 25.3956 170.556C25.7211 171.206 26.1334 171.814 26.6324 172.378C27.1315 172.921 27.7065 173.409 28.3575 173.843C29.0084 174.255 29.6594 174.624 30.3103 174.949L28.1296 177.553C27.24 177.119 26.3829 176.599 25.5583 175.991C24.7555 175.383 24.0394 174.7 23.4102 173.94C22.8026 173.159 22.3036 172.291 21.913 171.337C21.5441 170.382 21.3597 169.351 21.3597 168.245C21.3597 167.225 21.5224 166.346 21.8479 165.608C22.1951 164.849 22.6507 164.23 23.2149 163.753C23.7791 163.254 24.4192 162.885 25.1352 162.646C25.8513 162.408 26.5999 162.288 27.381 162.288C29.1169 162.288 30.5707 162.82 31.7425 163.883C32.133 163.428 32.6429 163.059 33.2722 162.777C33.9232 162.494 34.6175 162.353 35.3553 162.353C36.1581 162.353 36.744 162.429 37.1129 162.581V159.034H19.895V156.3H43.3946V159.034H40.628V177H37.1129V165.283C36.9827 165.239 36.8308 165.207 36.6572 165.185C36.5053 165.142 36.31 165.12 36.0713 165.12C35.16 165.12 34.4873 165.543 34.0534 166.389C33.6194 167.214 33.3699 168.548 33.3048 170.393H29.8221C29.8221 169.416 29.8764 168.548 29.9849 167.789C30.1151 167.029 30.2669 166.422 30.4405 165.966ZM49.7138 159.034V166.259H55.4747V159.034H49.7138ZM49.7138 171.467C49.5836 171.619 49.3557 171.771 49.0302 171.923C48.7048 172.053 48.2925 172.118 47.7934 172.118C47.2944 172.118 46.817 172.031 46.3613 171.857C45.9273 171.684 45.5368 171.434 45.1896 171.109C44.8424 170.783 44.5603 170.393 44.3433 169.937C44.1481 169.481 44.0504 168.972 44.0504 168.407C44.0504 167.691 44.2457 167.16 44.6363 166.812C45.0268 166.444 45.4717 166.259 45.9707 166.259H46.2311V159.034H42.7485V156.3H61.7565V159.034H58.9899V177H55.4747V169.026H49.7138V171.467ZM54.2852 148.651C54.6758 148.434 55.1749 148.26 55.7824 148.13C56.3683 148 56.9758 147.935 57.6051 147.935C59.2759 147.935 60.6646 148.358 61.7712 149.204C62.8779 150.05 63.8109 151.189 64.5704 152.622L66.5232 156.3H70.1686V159.034H67.402V177H63.8869V159.034H61.1203V156.3H63.7567L62.5198 154.444C61.8255 153.381 61.142 152.589 60.4693 152.068C59.775 151.548 58.8962 151.287 57.8329 151.287C57.399 151.287 56.9758 151.341 56.5636 151.45C56.1296 151.537 55.7499 151.645 55.4244 151.775L54.2852 148.651ZM81.0661 180.613C79.5689 180.526 78.2127 180.287 76.9976 179.897C75.8042 179.506 74.7843 178.975 73.9381 178.302C73.0918 177.651 72.4409 176.881 71.9852 175.991C71.5295 175.08 71.3017 174.071 71.3017 172.964C71.3017 172.074 71.4644 171.315 71.7899 170.686C72.1154 170.035 72.4843 169.525 72.8965 169.156C72.506 168.744 72.1154 168.245 71.7248 167.659C71.3342 167.051 71.1389 166.324 71.1389 165.478C71.1389 164.87 71.2474 164.328 71.4644 163.851C71.7031 163.373 72.0177 162.972 72.4083 162.646C72.7989 162.321 73.2546 162.082 73.7753 161.93C74.2961 161.757 74.8494 161.67 75.4353 161.67H79.6014V159.034H69.5115V156.3H86.6318V159.034H83.084V164.404H76.7697C76.1839 164.404 75.6957 164.512 75.3051 164.729C74.9145 164.946 74.7192 165.359 74.7192 165.966C74.7192 166.335 74.7843 166.671 74.9145 166.975C75.0664 167.257 75.2291 167.496 75.4027 167.691C76.3358 167.257 77.4207 167.04 78.6575 167.04C79.634 167.04 80.5019 167.171 81.2614 167.431C82.0425 167.691 82.7043 168.06 83.2468 168.538C83.7892 168.993 84.2015 169.547 84.4836 170.197C84.7874 170.827 84.9393 171.532 84.9393 172.313C84.9393 173.029 84.7874 173.702 84.4836 174.331C84.2015 174.939 83.8869 175.394 83.5397 175.698L80.7731 174.233C81.0118 173.995 81.1963 173.724 81.3265 173.42C81.4783 173.116 81.5543 172.78 81.5543 172.411C81.5543 171.738 81.3156 171.152 80.8382 170.653C80.3609 170.132 79.5797 169.872 78.4948 169.872C77.4099 169.872 76.5311 170.165 75.8584 170.751C75.2074 171.337 74.882 172.107 74.882 173.062C74.882 174.364 75.4353 175.427 76.5419 176.251C77.6485 177.076 79.417 177.608 81.8472 177.846L81.0661 180.613ZM97.4293 175.666L94.3047 177.553L88.2508 168.44C87.8819 167.919 87.6215 167.485 87.4696 167.138C87.3394 166.791 87.2743 166.465 87.2743 166.162C87.2743 165.641 87.4805 165.228 87.8927 164.925C88.3267 164.621 88.88 164.469 89.5527 164.469L90.1711 165.25C90.6268 165.858 91.1801 166.162 91.831 166.162C92.5471 166.162 93.1438 165.901 93.6212 165.38C94.0986 164.838 94.3372 164.046 94.3372 163.004C94.3372 162.093 94.1962 161.312 93.9141 160.661C93.632 159.988 93.3391 159.446 93.0353 159.034H86.1352V156.3H100.359V159.034H96.583C96.8651 159.402 97.1581 159.956 97.4618 160.693C97.7656 161.41 97.9175 162.277 97.9175 163.297C97.9175 164.209 97.7656 165.022 97.4618 165.738C97.1581 166.433 96.7566 167.019 96.2576 167.496C95.7802 167.973 95.216 168.342 94.5651 168.603C93.9358 168.841 93.2957 168.961 92.6447 168.961H92.3193L97.4293 175.666ZM124.722 159.034H121.955V177H118.44V170.002L111.182 177.651L108.22 175.145L113.753 170.718C113.08 170.631 112.462 170.458 111.898 170.197C111.334 169.937 110.835 169.59 110.401 169.156C109.988 168.722 109.663 168.19 109.424 167.561C109.186 166.91 109.066 166.172 109.066 165.348V159.034H107.113V156.3H124.722V159.034ZM112.581 165.087C112.581 166.129 112.831 166.867 113.33 167.301C113.851 167.735 114.523 167.952 115.348 167.952C116.042 167.952 116.65 167.832 117.171 167.594C117.691 167.333 118.115 167.019 118.44 166.65V159.034H112.581V165.087ZM130.075 148.065C130.075 149.041 129.913 149.877 129.587 150.571C129.283 151.265 128.871 151.84 128.35 152.296C127.83 152.752 127.233 153.088 126.56 153.305C125.888 153.5 125.193 153.598 124.477 153.598C123.674 153.598 122.926 153.49 122.231 153.273C121.537 153.034 120.929 152.687 120.409 152.231C119.888 151.775 119.486 151.2 119.204 150.506C118.901 149.812 118.749 148.998 118.749 148.065H121.808C121.873 149.063 122.134 149.768 122.589 150.18C123.023 150.593 123.631 150.799 124.412 150.799C125.193 150.799 125.812 150.571 126.267 150.115C126.723 149.66 126.972 148.976 127.016 148.065H130.075ZM126.853 159.034H124.087V156.3H133.135V159.034H130.368V177H126.853V159.034ZM137.913 170.816C137.501 170.577 137.078 170.295 136.644 169.97C136.232 169.622 135.841 169.243 135.472 168.83C135.125 168.396 134.832 167.93 134.593 167.431C134.376 166.91 134.268 166.368 134.268 165.804C134.268 164.588 134.669 163.59 135.472 162.809C136.275 162.006 137.512 161.605 139.183 161.605H143.479V159.034H132.478V156.3H150.119V159.034H146.994V164.404H139.801C139.172 164.404 138.684 164.545 138.336 164.827C138.011 165.087 137.848 165.467 137.848 165.966C137.848 166.313 137.946 166.639 138.141 166.943C138.336 167.246 138.575 167.507 138.857 167.724C139.443 167.55 139.996 167.431 140.517 167.366C141.038 167.301 141.548 167.268 142.047 167.268C144.087 167.268 145.671 167.724 146.799 168.635C147.927 169.525 148.491 170.718 148.491 172.215C148.491 173.691 147.895 174.906 146.701 175.861C145.53 176.794 143.805 177.26 141.526 177.26C140.658 177.26 139.823 177.184 139.02 177.033C138.239 176.881 137.501 176.675 136.807 176.414C136.134 176.154 135.516 175.861 134.951 175.535C134.387 175.21 133.899 174.874 133.487 174.526L135.082 172.085C135.971 172.801 136.948 173.365 138.011 173.778C139.096 174.168 140.224 174.364 141.396 174.364C142.611 174.364 143.501 174.168 144.065 173.778C144.629 173.365 144.911 172.823 144.911 172.15C144.911 171.499 144.64 171 144.097 170.653C143.555 170.306 142.796 170.132 141.819 170.132C141.168 170.132 140.528 170.187 139.899 170.295C139.27 170.404 138.608 170.577 137.913 170.816ZM174.647 155.974C176.556 155.974 178.032 156.549 179.074 157.699C180.137 158.827 180.668 160.368 180.668 162.321C180.668 163.428 180.495 164.458 180.148 165.413C179.8 166.346 179.334 167.192 178.748 167.952C178.162 168.689 177.49 169.319 176.73 169.839C175.971 170.36 175.189 170.751 174.387 171.011L179.529 175.308L176.795 177.521L171.36 171.923C170.969 171.901 170.568 171.825 170.155 171.695C169.765 171.564 169.407 171.391 169.081 171.174C168.756 170.935 168.474 170.642 168.235 170.295C168.018 169.948 167.899 169.547 167.877 169.091C167.769 168.613 167.552 168.223 167.226 167.919C166.922 167.594 166.532 167.431 166.054 167.431C165.338 167.431 164.774 167.648 164.362 168.082C163.971 168.516 163.776 169.145 163.776 169.97V177H160.326V172.443C160.044 172.812 159.599 173.116 158.991 173.355C158.384 173.593 157.69 173.713 156.908 173.713C156.084 173.713 155.303 173.582 154.565 173.322C153.827 173.04 153.176 172.639 152.612 172.118C152.048 171.575 151.592 170.924 151.245 170.165C150.92 169.384 150.757 168.483 150.757 167.463C150.757 166.53 150.909 165.706 151.212 164.99C151.538 164.274 151.961 163.677 152.482 163.2C153.024 162.722 153.643 162.364 154.337 162.126C155.053 161.887 155.802 161.768 156.583 161.768C157.321 161.768 158.015 161.887 158.666 162.126C159.339 162.343 159.892 162.668 160.326 163.102V159.034H149.292V156.3H167.714V159.034H163.776V165.804C164.058 165.478 164.427 165.196 164.883 164.957C165.36 164.719 165.935 164.599 166.608 164.599C167.476 164.599 168.203 164.816 168.788 165.25C169.396 165.662 169.862 166.227 170.188 166.943L171.783 168.44C172.455 168.288 173.117 168.038 173.768 167.691C174.419 167.322 174.983 166.878 175.461 166.357C175.96 165.814 176.361 165.185 176.665 164.469C176.969 163.753 177.121 162.95 177.121 162.06C177.121 160.932 176.893 160.108 176.437 159.587C175.981 159.066 175.406 158.806 174.712 158.806C174.083 158.806 173.584 159.001 173.215 159.392C172.846 159.76 172.662 160.216 172.662 160.759C172.662 161.366 172.868 161.865 173.28 162.256C173.692 162.625 174.246 162.874 174.94 163.004L173.703 165.315C173.182 165.25 172.662 165.109 172.141 164.892C171.62 164.653 171.143 164.339 170.709 163.948C170.296 163.558 169.96 163.091 169.7 162.549C169.439 161.985 169.309 161.344 169.309 160.628C169.309 159.977 169.439 159.37 169.7 158.806C169.96 158.242 170.318 157.753 170.774 157.341C171.251 156.907 171.815 156.571 172.466 156.332C173.139 156.093 173.866 155.974 174.647 155.974ZM183.565 159.034H182.231V156.3H189.847V159.034H187.08V177H183.565V159.034ZM160.358 165.836C159.99 165.445 159.566 165.142 159.089 164.925C158.612 164.708 158.069 164.599 157.462 164.599C156.594 164.599 155.856 164.86 155.248 165.38C154.641 165.879 154.337 166.639 154.337 167.659C154.337 168.679 154.608 169.471 155.151 170.035C155.715 170.577 156.453 170.848 157.364 170.848C157.755 170.848 158.123 170.794 158.471 170.686C158.84 170.556 159.154 170.371 159.415 170.132C159.697 169.894 159.924 169.579 160.098 169.188C160.272 168.798 160.358 168.342 160.358 167.821V165.836ZM201.16 164.567V159.034H189.182V156.3H207.442V159.034H204.675V177H201.16V167.398H195.432L195.594 170.165C195.508 170.273 195.301 170.404 194.976 170.556C194.672 170.686 194.303 170.751 193.869 170.751C192.871 170.751 192.058 170.414 191.428 169.742C190.799 169.069 190.484 168.212 190.484 167.171C190.484 166.389 190.712 165.76 191.168 165.283C191.645 164.805 192.372 164.567 193.349 164.567H201.16Z" fill="white"/>
</svg>
